<?xml version="1.0" encoding="UTF-8"?>
<svg width="1024px" height="1024px" viewBox="0 0 1024 1024" version="1.1" xmlns="http://www.w3.org/2000/svg" xmlns:xlink="http://www.w3.org/1999/xlink">
    <title>Icon_1024</title>
    <g id="Icon_1024" stroke="none" stroke-width="1" fill="none" fill-rule="evenodd">
        <path d="M142.295629,0.1 L881.704371,0.1 C931.155342,0.1 949.088864,5.24533807 967.167777,14.9140464 C985.238981,24.5786322 999.421368,38.7610191 1009.08595,56.8322233 C1018.75466,74.911136 1023.9,92.8446583 1023.9,142.295629 L1023.9,142.295629 L1023.9,881.704371 C1023.9,931.155342 1018.75466,949.088864 1009.08595,967.167777 C999.421368,985.238981 985.238981,999.421368 967.167777,1009.08595 C949.088864,1018.75466 931.155342,1023.9 881.704371,1023.9 L881.704371,1023.9 L142.295629,1023.9 C92.8446583,1023.9 74.911136,1018.75466 56.8322233,1009.08595 C38.7610191,999.421368 24.5786322,985.238981 14.9140464,967.167777 C5.24533807,949.088864 0.1,931.155342 0.1,881.704371 L0.1,881.704371 L0.1,142.295629 C0.1,92.8446583 5.24533807,74.911136 14.9140464,56.8322233 C24.5786322,38.7610191 38.7610191,24.5786322 56.8322233,14.9140464 C74.911136,5.24533807 92.8446583,0.1 142.295629,0.1 L142.295629,0.1 Z" id="Background" stroke="#979797" stroke-width="0.2" fill="#FCFCFC"></path>
        <g id="Glyph" transform="translate(61.000000, 120.000000)">
            <g id="Rings" transform="translate(131.000000, 72.000000)">
                <path d="M320,336 C328.836556,336 336,329.257515 336,320.271186 C336,311.284858 328.836556,304 320,304 C311.163444,304 304,311.284858 304,320.271186 C304,329.257515 311.163444,336 320,336 Z" id="Focus-Point" fill="#FF0000"></path>
                <circle id="Inner-Focus-Ring" stroke="#FF0000" stroke-width="3" cx="320" cy="320" r="78.5"></circle>
                <circle id="Middle-Focus-Ring" stroke="#FF0000" stroke-width="3" cx="320" cy="320" r="158.5"></circle>
                <circle id="Outer-Focus-Ring" stroke="#FF0000" stroke-width="3" cx="320" cy="320" r="318.5"></circle>
            </g>
            <g id="Corner" transform="translate(51.000000, 80.000000)" stroke="#979797" stroke-linecap="round" stroke-linejoin="round" stroke-width="20">
                <path d="M0,623 L0,471 C-2.09669663e-15,453.879173 13.8791728,440 31,440 L183,440 L183,440" id="Left-Bottom-Corner" transform="translate(91.500000, 531.500000) scale(1, -1) translate(-91.500000, -531.500000) "></path>
                <path d="M616,623 L616,471 C616,453.879173 629.879173,440 647,440 L799,440 L799,440" id="Right-Bottom-Corner" transform="translate(707.500000, 531.500000) scale(-1, -1) translate(-707.500000, -531.500000) "></path>
                <path d="M616,183 L616,31 C616,13.8791728 629.879173,5.99884638e-14 647,5.68434189e-14 L799,5.68434189e-14 L799,5.68434189e-14" id="Right-Top-Corner" transform="translate(707.500000, 91.500000) scale(-1, 1) translate(-707.500000, -91.500000) "></path>
                <path d="M0,183 L0,31 C-2.09669663e-15,13.8791728 13.8791728,5.99884638e-14 31,5.68434189e-14 L183,5.68434189e-14 L183,5.68434189e-14" id="Left-Top-Corner"></path>
            </g>
            <g id="Lines" transform="translate(0.000000, -0.000000)" stroke="#979797" stroke-linecap="round" stroke-width="16">
                <path d="M100,294 C100,393.514772 100,460.181439 100,494" id="Left" transform="translate(100.000000, 394.000000) rotate(-90.000000) translate(-100.000000, -394.000000) "></path>
                <path d="M450,0 C450,99.514772 450,166.181439 450,200" id="Bottom" transform="translate(450.000000, 100.000000) rotate(-180.000000) translate(-450.000000, -100.000000) "></path>
                <path d="M806,294 C806,393.514772 806,460.181439 806,494" id="Right" transform="translate(806.000000, 394.000000) rotate(-90.000000) translate(-806.000000, -394.000000) "></path>
                <path d="M451,584.544503 C451,585.892329 451,652.558995 451,784.544503" id="Top" transform="translate(451.000000, 684.544503) rotate(-180.000000) translate(-451.000000, -684.544503) "></path>
            </g>
        </g>
        <path d="M0,0 L1024,1024 M1024,0 L0,1024 M66,0 L66,1024 M318,0 L318,1024 M512,0 L512,1024 M706,0 L706,1024 M958,0 L958,1024 M0,958 L1024,958 M0,706 L1024,706 M0,512 L1024,512 M0,318 L1024,318 M0,66 L1024,66 M512,958 C758.318998,958 958,758.318998 958,512 C958,265.681002 758.318998,66 512,66 C265.681002,66 66,265.681002 66,512 C66,758.318998 265.681002,958 512,958 Z M512,786 C663.326021,786 786,663.326021 786,512 C786,360.673979 663.326021,238 512,238 C360.673979,238 238,360.673979 238,512 C238,663.326021 360.673979,786 512,786 Z M512,706 C619.143241,706 706,619.143241 706,512 C706,404.856759 619.143241,318 512,318 C404.856759,318 318,404.856759 318,512 C318,619.143241 404.856759,706 512,706 Z" id="Grid" stroke-opacity="0.5" stroke="#FFFFFF" stroke-width="2" stroke-linecap="square"></path>
    </g>
</svg>